REM DIRINDEX 1\2,1\3,1\4,1\5\6,1\5\7,1\8
REM DIRNAME cjc115,folder01,folder02,folder03,folder04,folder05,folder06,folder07
TITLE ""
FILE "141 【141】Unit8 (1597 aquatic_1608 technically).mp3" MP3
  TRACK 01 AUDIO
    TITLE "0:"
    INDEX 01 00:00:00
  TRACK 02 AUDIO
    TITLE "2:cjc115_5504"
    INDEX 01 00:00:07
  TRACK 03 AUDIO
    TITLE "0:"
    INDEX 01 00:01:22
  TRACK 04 AUDIO
    TITLE "3:cjc115_5505"
    INDEX 01 00:01:30
  TRACK 05 AUDIO
    TITLE "0:"
    INDEX 01 00:02:61
  TRACK 06 AUDIO
    TITLE "4:cjc115_5506"
    INDEX 01 00:02:71
  TRACK 07 AUDIO
    TITLE "0:"
    INDEX 01 00:07:31
  TRACK 08 AUDIO
    TITLE "2:cjc115_5507"
    INDEX 01 00:08:40
  TRACK 09 AUDIO
    TITLE "0:"
    INDEX 01 00:09:49
  TRACK 10 AUDIO
    TITLE "3:cjc115_5508"
    INDEX 01 00:09:57
  TRACK 11 AUDIO
    TITLE "0:"
    INDEX 01 00:10:63
  TRACK 12 AUDIO
    TITLE "4:cjc115_5509"
    INDEX 01 00:10:70
  TRACK 13 AUDIO
    TITLE "0:"
    INDEX 01 00:14:17
  TRACK 14 AUDIO
    TITLE "2:cjc115_5510"
    INDEX 01 00:15:27
  TRACK 15 AUDIO
    TITLE "0:"
    INDEX 01 00:16:40
  TRACK 16 AUDIO
    TITLE "3:cjc115_5511"
    INDEX 01 00:16:49
  TRACK 17 AUDIO
    TITLE "0:"
    INDEX 01 00:19:24
  TRACK 18 AUDIO
    TITLE "4:cjc115_5512"
    INDEX 01 00:19:32
  TRACK 19 AUDIO
    TITLE "0:"
    INDEX 01 00:22:40
  TRACK 20 AUDIO
    TITLE "2:cjc115_5513"
    INDEX 01 00:23:48
  TRACK 21 AUDIO
    TITLE "0:"
    INDEX 01 00:24:55
  TRACK 22 AUDIO
    TITLE "3:cjc115_5514"
    INDEX 01 00:24:63
  TRACK 23 AUDIO
    TITLE "0:"
    INDEX 01 00:27:49
  TRACK 24 AUDIO
    TITLE "4:cjc115_5515"
    INDEX 01 00:27:53
  TRACK 25 AUDIO
    TITLE "0:"
    INDEX 01 00:30:28
  TRACK 26 AUDIO
    TITLE "2:cjc115_5516"
    INDEX 01 00:31:37
  TRACK 27 AUDIO
    TITLE "0:"
    INDEX 01 00:32:60
  TRACK 28 AUDIO
    TITLE "3:cjc115_5517"
    INDEX 01 00:32:70
  TRACK 29 AUDIO
    TITLE "0:"
    INDEX 01 00:35:39
  TRACK 30 AUDIO
    TITLE "4:cjc115_5518"
    INDEX 01 00:35:47
  TRACK 31 AUDIO
    TITLE "0:"
    INDEX 01 00:39:72
  TRACK 32 AUDIO
    TITLE "2:cjc115_5519"
    INDEX 01 00:41:02
  TRACK 33 AUDIO
    TITLE "0:"
    INDEX 01 00:42:51
  TRACK 34 AUDIO
    TITLE "3:cjc115_5520"
    INDEX 01 00:42:63
  TRACK 35 AUDIO
    TITLE "0:"
    INDEX 01 00:44:18
  TRACK 36 AUDIO
    TITLE "4:cjc115_5521"
    INDEX 01 00:44:28
  TRACK 37 AUDIO
    TITLE "0:"
    INDEX 01 00:49:33
  TRACK 38 AUDIO
    TITLE "2:cjc115_5522"
    INDEX 01 00:50:44
  TRACK 39 AUDIO
    TITLE "0:"
    INDEX 01 00:51:60
  TRACK 40 AUDIO
    TITLE "3:cjc115_5523"
    INDEX 01 00:51:67
  TRACK 41 AUDIO
    TITLE "0:"
    INDEX 01 00:53:51
  TRACK 42 AUDIO
    TITLE "4:cjc115_5524"
    INDEX 01 00:53:57
  TRACK 43 AUDIO
    TITLE "0:"
    INDEX 01 00:57:33
  TRACK 44 AUDIO
    TITLE "2:cjc115_5525"
    INDEX 01 00:58:38
  TRACK 45 AUDIO
    TITLE "0:"
    INDEX 01 00:59:51
  TRACK 46 AUDIO
    TITLE "3:cjc115_5526"
    INDEX 01 00:59:57
  TRACK 47 AUDIO
    TITLE "0:"
    INDEX 01 01:01:58
  TRACK 48 AUDIO
    TITLE "4:cjc115_5527"
    INDEX 01 01:01:60
  TRACK 49 AUDIO
    TITLE "0:"
    INDEX 01 01:06:06
  TRACK 50 AUDIO
    TITLE "2:cjc115_5528"
    INDEX 01 01:07:15
  TRACK 51 AUDIO
    TITLE "0:"
    INDEX 01 01:08:31
  TRACK 52 AUDIO
    TITLE "3:cjc115_5529"
    INDEX 01 01:08:33
  TRACK 53 AUDIO
    TITLE "0:"
    INDEX 01 01:10:18
  TRACK 54 AUDIO
    TITLE "4:cjc115_5530"
    INDEX 01 01:10:26
  TRACK 55 AUDIO
    TITLE "0:"
    INDEX 01 01:14:00
  TRACK 56 AUDIO
    TITLE "2:cjc115_5531"
    INDEX 01 01:15:11
  TRACK 57 AUDIO
    TITLE "0:"
    INDEX 01 01:16:12
  TRACK 58 AUDIO
    TITLE "3:cjc115_5532"
    INDEX 01 01:16:22
  TRACK 59 AUDIO
    TITLE "0:"
    INDEX 01 01:19:09
  TRACK 60 AUDIO
    TITLE "4:cjc115_5533"
    INDEX 01 01:19:23
  TRACK 61 AUDIO
    TITLE "0:"
    INDEX 01 01:23:26
  TRACK 62 AUDIO
    TITLE "2:cjc115_5534"
    INDEX 01 01:24:30
  TRACK 63 AUDIO
    TITLE "0:"
    INDEX 01 01:25:66
  TRACK 64 AUDIO
    TITLE "3:cjc115_5535"
    INDEX 01 01:25:74
  TRACK 65 AUDIO
    TITLE "0:"
    INDEX 01 01:27:73
  TRACK 66 AUDIO
    TITLE "4:cjc115_5536"
    INDEX 01 01:28:06
  TRACK 67 AUDIO
    TITLE "0:"
    INDEX 01 01:31:69
  TRACK 68 AUDIO
    TITLE "2:cjc115_5537"
    INDEX 01 01:33:05
  TRACK 69 AUDIO
    TITLE "0:"
    INDEX 01 01:34:16
  TRACK 70 AUDIO
    TITLE "3:cjc115_5538"
    INDEX 01 01:34:22
  TRACK 71 AUDIO
    TITLE "0:"
    INDEX 01 01:37:07
  TRACK 72 AUDIO
    TITLE "4:cjc115_5539"
    INDEX 01 01:37:15
  TRACK 73 AUDIO
    TITLE "0:"
    INDEX 01 01:41:73
